# xmcd
#
# Track frame offsets:
#	150
#	10803
#	24377
#	40298
#	55935
#	90503
#	99873
#	115805
#	131754
#	146257
#	165761
#	182920
#
# Disc length: 2710 seconds
#
# Revision: 1
# Processed by: cddbd v1.5.2PL0 Copyright (c) Steve Scherf et al.
# Submitted via: audiograbber 1.83.01
#
DISCID=8b0a940c
DTITLE=The Greatest Country Music Recordings Of All Time - Record 53
DYEAR=1900
DGENRE=
TTITLE0=Gram Parsons - I Can't Dance
TTITLE1=Emmylou Harris - Two More Bottles Of Wine
TTITLE2=The Byrds - Hickory Wind
TTITLE3=Burrito Brothers - She Belongs To Everyone But Me
TTITLE4=Jerry Jeff Walker - London Homesick Blues
TTITLE5=Linda Ronstadt - Lovesick Blues
TTITLE6=The Band - The Night They Drove Old Dixie Down
TTITLE7=Jesse Winchester - Brand New Tennessee Waltz
TTITLE8=Nichael Nesmith - Silver Moon
TTITLE9=Pure Prairie League - Amie
TTITLE10=Area Code 615 - Kathy Hill
TTITLE11=The Band - Up On Cripple Creek
EXTD=
EXTT0=
EXTT1=
EXTT2=
EXTT3=
EXTT4=
EXTT5=
EXTT6=
EXTT7=
EXTT8=
EXTT9=
EXTT10=
EXTT11=
PLAYORDER=
